<svg width="141" height="22" viewBox="0 0 141 22" fill="none" xmlns="http://www.w3.org/2000/svg">
<g filter="url(#filter0_i_211_2)">
<path d="M11.5008 13.784V17H0.38875V0.368H4.13275V13.784H11.5008ZM13.0722 10.784C13.0722 9.664 13.2402 8.688 13.5762 7.856C13.9282 7.008 14.3842 6.304 14.9442 5.744C15.5042 5.184 16.1442 4.76 16.8642 4.472C17.6002 4.184 18.3522 4.04 19.1202 4.04C20.9122 4.04 22.3282 4.592 23.3682 5.696C24.4082 6.784 24.9282 8.392 24.9282 10.52C24.9282 10.728 24.9202 10.96 24.9042 11.216C24.8882 11.456 24.8722 11.672 24.8562 11.864H16.7442C16.8242 12.6 17.1682 13.184 17.7762 13.616C18.3842 14.048 19.2002 14.264 20.2242 14.264C20.8802 14.264 21.5202 14.208 22.1442 14.096C22.7842 13.968 23.3042 13.816 23.7042 13.64L24.1842 16.544C23.9922 16.64 23.7362 16.736 23.4162 16.832C23.0962 16.928 22.7362 17.008 22.3362 17.072C21.9522 17.152 21.5362 17.216 21.0882 17.264C20.6402 17.312 20.1922 17.336 19.7442 17.336C18.6082 17.336 17.6162 17.168 16.7682 16.832C15.9362 16.496 15.2402 16.04 14.6802 15.464C14.1362 14.872 13.7282 14.176 13.4562 13.376C13.2002 12.576 13.0722 11.712 13.0722 10.784ZM21.4722 9.416C21.4562 9.112 21.4002 8.816 21.3042 8.528C21.2242 8.24 21.0882 7.984 20.8962 7.76C20.7202 7.536 20.4882 7.352 20.2002 7.208C19.9282 7.064 19.5842 6.992 19.1682 6.992C18.7682 6.992 18.4242 7.064 18.1362 7.208C17.8482 7.336 17.6082 7.512 17.4162 7.736C17.2242 7.96 17.0722 8.224 16.9602 8.528C16.8642 8.816 16.7922 9.112 16.7442 9.416H21.4722ZM31.1198 17C30.3038 15.4 29.4718 13.528 28.6238 11.384C27.7918 9.24 26.9998 6.904 26.2478 4.376H30.0398C30.1998 5 30.3838 5.68 30.5918 6.416C30.8158 7.136 31.0398 7.872 31.2638 8.624C31.5038 9.36 31.7358 10.08 31.9598 10.784C32.1998 11.488 32.4318 12.128 32.6558 12.704C32.8638 12.128 33.0878 11.488 33.3278 10.784C33.5678 10.08 33.7998 9.36 34.0238 8.624C34.2638 7.872 34.4878 7.136 34.6958 6.416C34.9198 5.68 35.1118 5 35.2718 4.376H38.9678C38.2158 6.904 37.4158 9.24 36.5678 11.384C35.7358 13.528 34.9118 15.4 34.0958 17H31.1198ZM39.955 10.784C39.955 9.664 40.123 8.688 40.459 7.856C40.811 7.008 41.267 6.304 41.827 5.744C42.387 5.184 43.027 4.76 43.747 4.472C44.483 4.184 45.235 4.04 46.003 4.04C47.795 4.04 49.211 4.592 50.251 5.696C51.291 6.784 51.811 8.392 51.811 10.52C51.811 10.728 51.803 10.96 51.787 11.216C51.771 11.456 51.755 11.672 51.739 11.864H43.627C43.707 12.6 44.051 13.184 44.659 13.616C45.267 14.048 46.083 14.264 47.107 14.264C47.763 14.264 48.403 14.208 49.027 14.096C49.667 13.968 50.187 13.816 50.587 13.64L51.067 16.544C50.875 16.64 50.619 16.736 50.299 16.832C49.979 16.928 49.619 17.008 49.219 17.072C48.835 17.152 48.419 17.216 47.971 17.264C47.523 17.312 47.075 17.336 46.627 17.336C45.491 17.336 44.499 17.168 43.651 16.832C42.819 16.496 42.123 16.04 41.563 15.464C41.019 14.872 40.611 14.176 40.339 13.376C40.083 12.576 39.955 11.712 39.955 10.784ZM48.355 9.416C48.339 9.112 48.283 8.816 48.187 8.528C48.107 8.24 47.971 7.984 47.779 7.76C47.603 7.536 47.371 7.352 47.083 7.208C46.811 7.064 46.467 6.992 46.051 6.992C45.651 6.992 45.307 7.064 45.019 7.208C44.731 7.336 44.491 7.512 44.299 7.736C44.107 7.96 43.955 8.224 43.843 8.528C43.747 8.816 43.675 9.112 43.627 9.416H48.355ZM62.1786 7.544C61.8586 7.464 61.4826 7.384 61.0506 7.304C60.6186 7.208 60.1546 7.16 59.6586 7.16C59.4346 7.16 59.1626 7.184 58.8426 7.232C58.5386 7.264 58.3066 7.304 58.1466 7.352V17H54.5706V5.048C55.2106 4.824 55.9626 4.616 56.8266 4.424C57.7066 4.216 58.6826 4.112 59.7546 4.112C59.9466 4.112 60.1786 4.128 60.4506 4.16C60.7226 4.176 60.9946 4.208 61.2666 4.256C61.5386 4.288 61.8106 4.336 62.0826 4.4C62.3546 4.448 62.5866 4.512 62.7786 4.592L62.1786 7.544ZM69.9276 0.175999C72.4076 0.175999 74.3116 0.615999 75.6396 1.496C76.9676 2.36 77.6316 3.784 77.6316 5.768C77.6316 7.768 76.9596 9.216 75.6156 10.112C74.2716 10.992 72.3516 11.432 69.8556 11.432H68.6796V17H64.9356V0.607999C65.7516 0.447999 66.6156 0.335999 67.5276 0.271999C68.4396 0.207999 69.2396 0.175999 69.9276 0.175999ZM70.1676 3.368C69.8956 3.368 69.6236 3.376 69.3516 3.392C69.0956 3.408 68.8716 3.424 68.6796 3.44V8.24H69.8556C71.1516 8.24 72.1276 8.064 72.7836 7.712C73.4396 7.36 73.7676 6.704 73.7676 5.744C73.7676 5.28 73.6796 4.896 73.5036 4.592C73.3436 4.288 73.1036 4.048 72.7836 3.872C72.4796 3.68 72.1036 3.552 71.6556 3.488C71.2076 3.408 70.7116 3.368 70.1676 3.368ZM84.4962 14.504C84.8482 14.504 85.1842 14.496 85.5042 14.48C85.8242 14.464 86.0802 14.44 86.2722 14.408V11.696C86.1282 11.664 85.9122 11.632 85.6242 11.6C85.3362 11.568 85.0722 11.552 84.8322 11.552C84.4962 11.552 84.1762 11.576 83.8722 11.624C83.5842 11.656 83.3282 11.728 83.1042 11.84C82.8802 11.952 82.7042 12.104 82.5762 12.296C82.4482 12.488 82.3842 12.728 82.3842 13.016C82.3842 13.576 82.5682 13.968 82.9362 14.192C83.3202 14.4 83.8402 14.504 84.4962 14.504ZM84.2082 4.04C85.2642 4.04 86.1442 4.16 86.8482 4.4C87.5522 4.64 88.1122 4.984 88.5282 5.432C88.9602 5.88 89.2642 6.424 89.4402 7.064C89.6162 7.704 89.7042 8.416 89.7042 9.2V16.64C89.1922 16.752 88.4802 16.88 87.5682 17.024C86.6562 17.184 85.5522 17.264 84.2562 17.264C83.4402 17.264 82.6962 17.192 82.0242 17.048C81.3682 16.904 80.8002 16.672 80.3202 16.352C79.8402 16.016 79.4722 15.584 79.2162 15.056C78.9602 14.528 78.8322 13.88 78.8322 13.112C78.8322 12.376 78.9762 11.752 79.2642 11.24C79.5682 10.728 79.9682 10.32 80.4642 10.016C80.9602 9.712 81.5282 9.496 82.1682 9.368C82.8082 9.224 83.4722 9.152 84.1602 9.152C84.6242 9.152 85.0322 9.176 85.3842 9.224C85.7522 9.256 86.0482 9.304 86.2722 9.368V9.032C86.2722 8.424 86.0882 7.936 85.7202 7.568C85.3522 7.2 84.7122 7.016 83.8002 7.016C83.1922 7.016 82.5922 7.064 82.0002 7.16C81.4082 7.24 80.8962 7.36 80.4642 7.52L80.0082 4.64C80.2162 4.576 80.4722 4.512 80.7762 4.448C81.0962 4.368 81.4402 4.304 81.8082 4.256C82.1762 4.192 82.5602 4.144 82.9602 4.112C83.3762 4.064 83.7922 4.04 84.2082 4.04ZM101.026 10.784C101.026 9.68 100.778 8.8 100.282 8.144C99.7858 7.472 99.0498 7.136 98.0738 7.136C97.7538 7.136 97.4578 7.152 97.1858 7.184C96.9138 7.2 96.6898 7.224 96.5138 7.256V13.712C96.7378 13.856 97.0258 13.976 97.3778 14.072C97.7458 14.168 98.1138 14.216 98.4818 14.216C100.178 14.216 101.026 13.072 101.026 10.784ZM104.674 10.688C104.674 11.664 104.554 12.552 104.314 13.352C104.074 14.152 103.722 14.84 103.258 15.416C102.794 15.992 102.218 16.44 101.53 16.76C100.842 17.08 100.05 17.24 99.1538 17.24C98.6578 17.24 98.1938 17.192 97.7618 17.096C97.3298 17 96.9138 16.864 96.5138 16.688V21.44H92.9378V4.808C93.2578 4.712 93.6258 4.624 94.0418 4.544C94.4578 4.448 94.8898 4.368 95.3378 4.304C95.8018 4.24 96.2658 4.192 96.7298 4.16C97.2098 4.112 97.6658 4.088 98.0978 4.088C99.1378 4.088 100.066 4.248 100.882 4.568C101.698 4.872 102.386 5.312 102.946 5.888C103.506 6.448 103.93 7.136 104.218 7.952C104.522 8.768 104.674 9.68 104.674 10.688ZM106.822 10.784C106.822 9.664 106.99 8.688 107.326 7.856C107.678 7.008 108.134 6.304 108.694 5.744C109.254 5.184 109.894 4.76 110.614 4.472C111.35 4.184 112.102 4.04 112.87 4.04C114.662 4.04 116.078 4.592 117.118 5.696C118.158 6.784 118.678 8.392 118.678 10.52C118.678 10.728 118.67 10.96 118.654 11.216C118.638 11.456 118.622 11.672 118.606 11.864H110.494C110.574 12.6 110.918 13.184 111.526 13.616C112.134 14.048 112.95 14.264 113.974 14.264C114.63 14.264 115.27 14.208 115.894 14.096C116.534 13.968 117.054 13.816 117.454 13.64L117.934 16.544C117.742 16.64 117.486 16.736 117.166 16.832C116.846 16.928 116.486 17.008 116.086 17.072C115.702 17.152 115.286 17.216 114.838 17.264C114.39 17.312 113.942 17.336 113.494 17.336C112.358 17.336 111.366 17.168 110.518 16.832C109.686 16.496 108.99 16.04 108.43 15.464C107.886 14.872 107.478 14.176 107.206 13.376C106.95 12.576 106.822 11.712 106.822 10.784ZM115.222 9.416C115.206 9.112 115.15 8.816 115.054 8.528C114.974 8.24 114.838 7.984 114.646 7.76C114.47 7.536 114.238 7.352 113.95 7.208C113.678 7.064 113.334 6.992 112.918 6.992C112.518 6.992 112.174 7.064 111.886 7.208C111.598 7.336 111.358 7.512 111.166 7.736C110.974 7.96 110.822 8.224 110.71 8.528C110.614 8.816 110.542 9.112 110.494 9.416H115.222ZM129.046 7.544C128.726 7.464 128.35 7.384 127.918 7.304C127.486 7.208 127.022 7.16 126.526 7.16C126.302 7.16 126.03 7.184 125.71 7.232C125.406 7.264 125.174 7.304 125.014 7.352V17H121.438V5.048C122.078 4.824 122.83 4.616 123.694 4.424C124.574 4.216 125.55 4.112 126.622 4.112C126.814 4.112 127.046 4.128 127.318 4.16C127.59 4.176 127.862 4.208 128.134 4.256C128.406 4.288 128.678 4.336 128.95 4.4C129.222 4.448 129.454 4.512 129.646 4.592L129.046 7.544ZM135.187 14.432C135.843 14.432 136.307 14.368 136.579 14.24C136.851 14.112 136.987 13.864 136.987 13.496C136.987 13.208 136.811 12.96 136.459 12.752C136.107 12.528 135.571 12.28 134.851 12.008C134.291 11.8 133.779 11.584 133.315 11.36C132.867 11.136 132.483 10.872 132.163 10.568C131.843 10.248 131.595 9.872 131.419 9.44C131.243 9.008 131.155 8.488 131.155 7.88C131.155 6.696 131.595 5.76 132.475 5.072C133.355 4.384 134.563 4.04 136.099 4.04C136.867 4.04 137.603 4.112 138.307 4.256C139.011 4.384 139.571 4.528 139.987 4.688L139.363 7.472C138.947 7.328 138.491 7.2 137.995 7.088C137.515 6.976 136.971 6.92 136.363 6.92C135.243 6.92 134.683 7.232 134.683 7.856C134.683 8 134.707 8.128 134.755 8.24C134.803 8.352 134.899 8.464 135.043 8.576C135.187 8.672 135.379 8.784 135.619 8.912C135.875 9.024 136.195 9.152 136.579 9.296C137.363 9.584 138.011 9.872 138.523 10.16C139.035 10.432 139.435 10.736 139.723 11.072C140.027 11.392 140.235 11.752 140.347 12.152C140.475 12.552 140.539 13.016 140.539 13.544C140.539 14.792 140.067 15.736 139.123 16.376C138.195 17.016 136.875 17.336 135.163 17.336C134.043 17.336 133.107 17.24 132.355 17.048C131.619 16.856 131.107 16.696 130.819 16.568L131.419 13.664C132.027 13.904 132.651 14.096 133.291 14.24C133.931 14.368 134.563 14.432 135.187 14.432Z" fill="#FFA500"/>
</g>
<defs>
<filter id="filter0_i_211_2" x="0.388748" y="0.175999" width="140.15" height="25.264" filterUnits="userSpaceOnUse" color-interpolation-filters="sRGB">
<feFlood flood-opacity="0" result="BackgroundImageFix"/>
<feBlend mode="normal" in="SourceGraphic" in2="BackgroundImageFix" result="shape"/>
<feColorMatrix in="SourceAlpha" type="matrix" values="0 0 0 0 0 0 0 0 0 0 0 0 0 0 0 0 0 0 127 0" result="hardAlpha"/>
<feOffset dy="4"/>
<feGaussianBlur stdDeviation="2"/>
<feComposite in2="hardAlpha" operator="arithmetic" k2="-1" k3="1"/>
<feColorMatrix type="matrix" values="0 0 0 0 0 0 0 0 0 0 0 0 0 0 0 0 0 0 0.25 0"/>
<feBlend mode="normal" in2="shape" result="effect1_innerShadow_211_2"/>
</filter>
</defs>
</svg>
