<svg xmlns="http://www.w3.org/2000/svg" version="1.1" xmlns:xlink="http://www.w3.org/1999/xlink" xmlns:svgjs="http://svgjs.dev/svgjs" width="100%" height="100%" viewBox="0 0 1000 600"><rect width="1000" height="600" x="0" y="0" fill="#ffffff"/><g><circle r="166.66666666666666" cx="358.07107035319007" cy="380.2934135094878" fill="#ffa500" transform="matrix(0.6530669564721996,0,0,0.6530669564721996,0,51.64290636930336)"/><path d="M281.8235265117348 318.4655823787452L281.8235265117348 318.4655823787452L280.5759444171696 404.51973336666316Q280.5759444171696 420.6222464476795 281.2142422329937 428.33984731173416L281.2142422329937 428.33984731173416Q284.5507989975286 429.18123988713864 291.94925095367125 429.18123988713864Q299.3767164468968 429.18123988713864 304.7152072701527 427.9336577925734Q310.0246845563256 426.68607569800815 313.6803902287726 423.436559544722Q317.33609590121955 420.18704339143585 319.6281653307696 417.37273029439336Q321.9492482974026 414.5584171973508 323.6030199111286 408.92979100326585L323.6030199111286 408.92979100326585Q326.12719763734196 401.3862713617086 328.62236182647246 389.0845316385538L328.62236182647246 389.0845316385538Q328.62236182647246 388.85242334189047 331.6397696830953 388.85242334189047Q334.68619107680115 388.85242334189047 341.2722639946222 391.6957499760159Q347.82932337536045 394.5100630730584 347.82932337536045 395.96073992720403L347.82932337536045 395.96073992720403Q347.82932337536045 412.0632530082204 346.17555176163444 432.3147018920932L346.17555176163444 432.3147018920932Q344.49276661082547 454.887233742599 342.08464303294375 454.887233742599Q339.705532992145 454.887233742599 332.8003111664118 453.08839444345836Q325.8950893406787 451.31856868140073 322.3554378165634 449.8678918272551L322.3554378165634 449.8678918272551Q303.55466578683615 453.0013538322097 273.6707225914365 453.2044485917901L273.6707225914365 453.2044485917901L263.22584924158804 453.40754335137046L254.8699505617093 452.3630560163856Q254.05757152338774 451.5216634409811 254.05757152338774 433.9974870429021L254.05757152338774 433.9974870429021L254.8699505617093 353.9781517682299Q254.8699505617093 329.5487535444177 253.7384226154757 327.98202254194047Q252.57788113215923 326.41529153946317 249.87962218344836 320.0323133812225Q247.1523496976546 313.64933522298173 247.1523496976546 311.79246884967534L247.1523496976546 311.79246884967534Q247.1523496976546 310.9510762742709 251.73648855675475 309.4713858830424L251.73648855675475 309.4713858830424Q263.22584924158804 305.293436543103 272.0169509777105 305.293436543103Q280.77903917675 305.293436543103 281.30128284424245 305.9317343589271Q281.8235265117348 306.57003217475113 281.8235265117348 318.4655823787452ZM394.62815869009796 378.20445523246167L394.62815869009796 378.20445523246167Q441.4269940048356 374.0265058925223 441.4269940048356 348.3495255741449L441.4269940048356 348.3495255741449Q441.4269940048356 339.99362689426613 432.7519464170448 335.29343388683435Q424.076898829254 330.5932408794026 410.7306717711143 330.5932408794026L410.7306717711143 330.5932408794026L395.6726460250828 331.8408229739678Q394.62815869009796 339.3553290784421 394.62815869009796 378.20445523246167ZM396.7171333600677 450.27408134641587Q394.4250639305176 452.566150775966 387.63589625311613 453.92978701886284Q380.8467285757147 455.2934232617597 376.0304814199512 455.2934232617597Q371.2432478012706 455.2934232617597 368.3128805558965 454.04584116719445L368.3128805558965 454.04584116719445L369.5604626504618 333.4945945876938Q366.63009540508756 330.15803782315885 364.01887706762545 322.44043695910415Q361.40765873016335 314.6938225579666 361.40765873016335 312.923996795909Q361.40765873016335 311.1541710338513 361.92990239765584 310.63192736635887Q362.4521460651482 310.10968369886643 375.30514299287836 309.3843452717936Q388.1581399206085 308.6590068447208 401.2142316079191 308.6590068447208Q414.2703232952296 308.6590068447208 424.5121018854977 310.10968369886643Q434.75388047576575 311.56036055301206 445.4888891964433 315.4481745221223Q456.25291145420374 319.30697495414967 462.63588961244443 327.34372472611636Q468.9898542336023 335.38047449808306 468.9898542336023 347.9143225179012Q468.9898542336023 360.4481705377193 461.3883075178793 370.8930438875678Q453.75774726507325 381.3379172374162 442.8776708589812 386.7634486719208L442.8776708589812 386.7634486719208Q420.3341525455583 398.2528093567541 402.3747730912356 400.5738923233871L402.3747730912356 400.5738923233871L394.62815869009796 401.3862713617086Q395.46955126550245 444.00715733650685 396.7171333600677 450.27408134641587L396.7171333600677 450.27408134641587Z " fill="#ffffff" transform="matrix(0.6530669564721996,0,0,0.6530669564721996,0,51.64290636930336)"/><path d="M634.3309813921586 315.27000231174236L634.3309813921586 315.27000231174236L633.3860650315917 380.4472563917801Q633.3860650315917 392.6432698828189 633.8695106114167 398.48856643888433L633.8695106114167 398.48856643888433Q636.3966125059562 399.12583561228996 642.0001862721092 399.12583561228996Q647.625734837345 399.12583561228996 651.6690978686083 398.18091925172297Q655.6904861007887 397.236002891156 658.4593107852406 394.7748253938653Q661.2281354696927 392.3136478965746 662.964144597246 390.1820923855282Q664.7221285238822 388.05053687448174 665.9746920716105 383.78742585238894L665.9746920716105 383.78742585238894Q667.8864995918275 378.07397809082124 669.7763323129614 368.7566632796493L669.7763323129614 368.7566632796493Q669.7763323129614 368.58086488698564 672.0617114175884 368.58086488698564Q674.3690653212984 368.58086488698564 679.3573447131288 370.734395197115Q684.3236493058761 372.86595070816145 684.3236493058761 373.96469066230907L684.3236493058761 373.96469066230907Q684.3236493058761 386.16070415334787 683.0710857581478 401.49911391324883L683.0710857581478 401.49911391324883Q681.7965474113365 418.59550759978606 679.9726390874514 418.59550759978606Q678.1707055626493 418.59550759978606 672.9407033809066 417.233070056643Q667.7107011991639 415.89260731258287 665.0297757110436 414.79386735843525L665.0297757110436 414.79386735843525Q650.7901059052901 417.1671456593941 628.1560628498489 417.3209692529748L628.1560628498489 417.3209692529748L620.2451351799859 417.4747928465555L613.9163930440956 416.6837000795692Q613.301098669773 416.04643090616355 613.301098669773 402.7736522600601L613.301098669773 402.7736522600601L613.9163930440956 342.1671563892765Q613.9163930440956 323.6643755614303 613.0593758798605 322.47773641095085Q612.1803839165423 321.2910972604714 610.1367276018277 316.4566414622218Q608.0710964880302 311.62218566397223 608.0710964880302 310.21579852266325L608.0710964880302 310.21579852266325Q608.0710964880302 309.57852934925756 611.5431147431366 308.457814596027L611.5431147431366 308.457814596027Q620.2451351799859 305.2934435280818 626.9034993021206 305.2934435280818Q633.5398886251724 305.2934435280818 633.9354350086655 305.77688910790675Q634.3309813921586 306.26033468773176 634.3309813921586 315.27000231174236ZM732.7561064847039 363.8343082850679L732.7561064847039 363.8343082850679Q732.7561064847039 359.2635500758137 727.8337514901225 359.2635500758137L727.8337514901225 359.2635500758137Q721.3511857606514 359.2635500758137 716.4508055651529 365.8999393988654Q711.5504253696545 372.53632872191713 711.5504253696545 381.87561833217205L711.5504253696545 381.87561833217205Q711.5504253696545 384.0950730395503 712.1876945430602 384.0950730395503L712.1876945430602 384.0950730395503Q717.8791675055448 383.9412494459696 725.3066495955828 377.52460811374743Q732.7561064847039 371.12994158060815 732.7561064847039 363.8343082850679ZM746.5123307106322 414.1565981850296L746.5123307106322 414.1565981850296Q741.1285049353089 417.80441483279975 725.4604731891635 417.80441483279975Q709.8144162421012 417.80441483279975 701.4200429924133 408.4651252225448Q693.0256697427253 399.12583561228996 693.0256697427253 383.5457030624765Q693.0256697427253 367.96557051266296 703.0901277227176 356.49472539136167Q713.1326109036271 345.0238802700603 731.3277445443119 345.0238802700603L731.3277445443119 345.0238802700603Q738.7552266343499 345.0238802700603 745.0180443729914 348.9793441049918Q751.2588873125501 352.9348079399233 751.2588873125501 362.82346752725203Q751.2588873125501 372.71212711458077 742.6447660720326 382.359063911997Q734.0086700324322 392.00600070941323 719.1317310532731 397.0602044984924L719.1317310532731 397.0602044984924Q719.1317310532731 398.9720120187093 723.0212704909558 400.1586511691887Q726.8888351295554 401.34529031966815 730.6904753709064 401.34529031966815L730.6904753709064 401.34529031966815Q742.7106904692814 401.34529031966815 749.6767017785775 397.0602044984924L749.6767017785775 397.0602044984924Q749.8305253721581 396.9063809049117 750.1601473584025 396.9063809049117Q750.4677945455637 396.9063809049117 750.4677945455637 399.9169283792762L750.4677945455637 399.9169283792762Q750.4677945455637 409.10239439595045 746.5123307106322 414.1565981850296ZM787.4953310003391 417.4747928465555L784.1771363388132 417.6286164401361Q779.7382269240568 417.6286164401361 776.8815030432729 416.6837000795692L776.8815030432729 416.6837000795692Q776.8815030432729 413.3655054180433 766.8390198623636 383.2160810762322Q756.7965366814542 353.088631533504 756.7965366814542 346.7598893976136L756.7965366814542 346.7598893976136Q756.7965366814542 346.4302674113693 758.4666214117585 345.4194266535535Q760.11473134298 344.38661109665475 764.2240187714922 343.2658963434241Q768.3552809990872 342.1671563892765 773.563308381747 342.1671563892765L773.563308381747 342.1671563892765Q783.2102451791633 381.41414755143006 788.1326001737448 392.3136478965746L788.1326001737448 392.3136478965746Q788.2864237673253 393.1047406635609 788.7478945480674 392.3136478965746L788.7478945480674 392.3136478965746Q791.6046184288513 387.2594441074955 797.4499149849166 365.5043930153723Q803.3171863400651 343.74934192324906 803.9544555134706 337.11295260019733L803.9544555134706 337.11295260019733Q804.1082791070513 336.14606144054744 807.4264737685772 335.44286786989295Q810.744668430103 334.73967429923846 816.1284942054265 334.73967429923846Q821.5123199807499 334.73967429923846 823.4021527018838 336.3218598332111L823.4021527018838 336.3218598332111Q823.4021527018838 340.89261804246524 812.173030370495 377.21696092658607Q800.9439080391062 413.519329011624 799.6693696922948 414.79386735843525L799.6693696922948 414.79386735843525Q797.4499149849166 417.01332206581344 787.4953310003391 417.4747928465555L787.4953310003391 417.4747928465555ZM869.4393567806698 363.8343082850679L869.4393567806698 363.8343082850679Q869.4393567806698 359.2635500758137 864.5389765851713 359.2635500758137L864.5389765851713 359.2635500758137Q858.0564108557003 359.2635500758137 853.1560306602018 365.8999393988654Q848.2556504647034 372.53632872191713 848.2556504647034 381.87561833217205L848.2556504647034 381.87561833217205Q848.2556504647034 384.0950730395503 848.870944839026 384.0950730395503L848.870944839026 384.0950730395503Q854.5843926005937 383.9412494459696 862.0118746906318 377.52460811374743Q869.4393567806698 371.12994158060815 869.4393567806698 363.8343082850679ZM883.2175558056812 414.1565981850296L883.2175558056812 414.1565981850296Q877.8337300303577 417.80441483279975 862.1656982842125 417.80441483279975Q846.4976665380672 417.80441483279975 838.1252680874621 408.4651252225448Q829.7308948377743 399.12583561228996 829.7308948377743 383.5457030624765Q829.7308948377743 367.96557051266296 839.7733780186836 356.49472539136167Q849.8378359986759 345.0238802700603 868.0329696393608 345.0238802700603L868.0329696393608 345.0238802700603Q875.4604517293988 345.0238802700603 881.7012946689574 348.9793441049918Q887.9641124075989 352.9348079399233 887.9641124075989 362.82346752725203Q887.9641124075989 372.71212711458077 879.3280163679985 382.359063911997Q870.713895127481 392.00600070941323 855.8369561483221 397.0602044984924L855.8369561483221 397.0602044984924Q855.8369561483221 398.9720120187093 859.7264955860047 400.1586511691887Q863.5940602246044 401.34529031966815 867.3957004659551 401.34529031966815L867.3957004659551 401.34529031966815Q879.4159155643304 401.34529031966815 886.3819268736263 397.0602044984924L886.3819268736263 397.0602044984924Q886.535750467207 396.9063809049117 886.8433976543683 396.9063809049117Q887.1730196406127 396.9063809049117 887.1730196406127 399.9169283792762L887.1730196406127 399.9169283792762Q887.1730196406127 409.10239439595045 883.2175558056812 414.1565981850296ZM900.1381510995548 392.79709347639954L900.1381510995548 392.79709347639954L899.8305039123934 356.8902717748548Q899.8305039123934 347.55098216459993 900.4677730857991 346.9137129911943L900.4677730857991 346.9137129911943Q902.2037822133523 345.177703863641 906.4668932354451 343.8372411195809Q910.7519790566209 342.4748035764378 914.4657201016399 342.4748035764378Q918.1794611466589 342.4748035764378 918.1794611466589 343.2658963434241L918.1794611466589 343.2658963434241Q917.6960155668339 347.55098216459993 917.6960155668339 353.00073233717217Q917.6960155668339 358.4724573088274 918.0256375530782 358.4724573088274Q918.3332847402396 358.4724573088274 918.6629067264839 358.07691092533423Q918.9705539136453 357.6813645418411 919.6737474842997 356.802372578523Q920.3989158540371 355.9233806152049 922.6842949586642 353.7259007069096Q924.9916488623742 351.50644599953137 927.6725743504944 349.9242604655588L927.6725743504944 349.9242604655588Q934.4847620662098 345.48535105080236 942.2198913434092 345.48535105080236L942.2198913434092 345.48535105080236Q943.4944296902205 347.55098216459993 943.4944296902205 351.81409318669273L943.4944296902205 351.81409318669273Q943.4944296902205 360.8457356097863 941.2749749828422 364.62540105205414L941.2749749828422 364.62540105205414L940.6377058094366 365.8999393988654L938.594049494722 365.5922922117041Q927.1891287706695 365.5922922117041 920.7065630411985 374.90960702287606L920.7065630411985 374.90960702287606Q918.1794611466589 378.71124726422687 918.1794611466589 380.62305478444375L918.1794611466589 380.62305478444375L918.1794611466589 394.53310260395284Q918.1794611466589 413.519329011624 917.6960155668339 414.00277459144894L917.6960155668339 414.00277459144894Q913.2790809511605 418.26588561354174 900.2919746931354 418.26588561354174L900.2919746931354 418.26588561354174Q899.039411145407 418.26588561354174 899.039411145407 417.80441483279975L899.039411145407 417.80441483279975Q900.1381510995548 411.62949629049 900.1381510995548 392.79709347639954ZM974.9843167760916 360.516113623542L974.9843167760916 360.516113623542Q1010.4296676968945 357.35174255559684 1010.4296676968945 337.90404536718364L1010.4296676968945 337.90404536718364Q1010.4296676968945 331.5753032312933 1003.8592027710916 328.01538577985497Q997.2887378452888 324.4554683284166 987.1583554680475 324.4554683284166L987.1583554680475 324.4554683284166L975.775409543078 325.4003846889836Q974.9843167760916 331.09185765146833 974.9843167760916 360.516113623542ZM976.5665023100644 415.10151454559656Q974.830493182511 416.8375236731498 969.6883901971 417.8703392300486Q964.5462872116891 418.90315478694737 960.8984705639191 418.90315478694737Q957.2506539161488 418.90315478694737 955.0531740078536 417.9582384263804L955.0531740078536 417.9582384263804L955.9980903684205 326.6529482367119Q953.7786356610422 324.12584634217234 951.8009037435766 318.28054978610686Q949.8231718261109 312.41327843095854 949.8231718261109 311.07281568689837Q949.8231718261109 309.73235294283825 950.218718209604 309.3368065593451Q950.6142645930971 308.941260175852 960.3491005868452 308.3918901987781Q970.0839365805932 307.8425202217043 979.9725961679219 307.8425202217043Q989.8612557552507 307.8425202217043 997.59638503245 308.941260175852Q1005.3534891087324 310.0400001299996 1013.5061395685078 312.98462320711525Q1021.6587900282833 315.907271485148 1026.4712710274498 321.9942908311259Q1031.3057268256994 328.08131017710383 1031.3057268256994 337.5744233809394Q1031.3057268256994 347.0675365847749 1025.526354666883 354.9784642546379Q1019.7469825080664 362.8893919245009 1011.528407651042 366.9986793530131L1011.528407651042 366.9986793530131Q994.4320139645049 375.70069978986237 980.8296133321571 377.45868371649857L980.8296133321571 377.45868371649857L974.9843167760916 378.07397809082124Q975.6215859494973 410.3549579436788 976.5665023100644 415.10151454559656L976.5665023100644 415.10151454559656ZM1088.264406048713 370.8003195943639L1088.264406048713 378.86507085780755Q1088.264406048713 398.64239003246496 1088.747851628538 401.9825594930738L1088.747851628538 401.9825594930738Q1090.0004151762664 410.6845799299231 1094.1097026047785 414.46424537219093L1094.1097026047785 414.46424537219093Q1094.1097026047785 416.2222292988272 1087.8688596652198 419.6942475539337Q1081.6280167256612 423.1662658090402 1076.551838137499 423.1662658090402L1076.551838137499 423.1662658090402Q1075.1234761971073 423.1662658090402 1073.5412906631345 418.9910539832792Q1071.959105129162 414.79386735843525 1071.7393571383325 412.7282362446377Q1071.49763434842 410.6845799299231 1071.3438107548393 410.6845799299231L1071.3438107548393 410.6845799299231L1070.8603651750143 410.99222711708444Q1062.4659919253265 417.6286164401361 1051.2368695939376 417.6286164401361Q1040.007747262549 417.6286164401361 1033.920727916571 412.1788662675639Q1027.833708570593 406.7291160949916 1027.833708570593 397.8512972654787Q1027.833708570593 388.9954532350487 1031.7012732091925 382.9084338890708Q1035.5688378477923 376.82141454309294 1040.798840029535 373.65704347514776Q1046.0288422112778 370.4926724072026 1052.357584347168 368.58086488698564L1052.357584347168 368.58086488698564Q1062.0045211445845 365.41649381904045 1067.5421705134886 365.41649381904045L1067.5421705134886 365.41649381904045L1067.84981770065 365.26267022545983Q1067.84981770065 357.50556614917747 1048.226322119573 357.50556614917747L1048.226322119573 357.50556614917747Q1040.4911928423737 357.50556614917747 1036.689552601023 358.1428353225831L1036.689552601023 358.1428353225831L1036.5357290074423 358.1428353225831Q1036.5357290074423 354.9784642546379 1038.513460924908 350.2319076527201Q1040.4911928423737 345.48535105080236 1041.831655586434 344.0569891104104Q1043.172118330494 342.65060196910144 1053.1486771141545 342.65060196910144L1053.1486771141545 342.65060196910144Q1071.168012362176 342.65060196910144 1079.7162092054443 349.5287140820657Q1088.264406048713 356.40682619502985 1088.264406048713 370.8003195943639L1088.264406048713 370.8003195943639ZM1070.7065415814338 388.9954532350487L1070.7065415814338 388.9954532350487L1070.7065415814338 382.9963330854026Q1070.7065415814338 379.5023400312132 1070.5527179878532 379.5023400312132L1070.5527179878532 379.5023400312132Q1059.938890030787 379.5023400312132 1052.1817859545044 385.03998940011724L1052.1817859545044 385.03998940011724Q1047.2814057590062 388.53398245430674 1047.2814057590062 393.74200983696653L1047.2814057590062 393.74200983696653Q1047.2814057590062 397.0602044984924 1049.6546840599651 399.27965920587064Q1052.027962360924 401.49911391324883 1056.8624181591736 401.49911391324883Q1061.6748991583402 401.49911391324883 1066.2017077694284 398.64239003246496Q1070.7065415814338 395.8076409507641 1070.7065415814338 388.9954532350487ZM1122.2813950291238 337.4205997873587L1122.2813950291238 337.4205997873587L1122.1275714355431 344.84808187739674Q1164.2093116793976 344.84808187739674 1164.2093116793976 377.45868371649857L1164.2093116793976 377.45868371649857Q1164.2093116793976 386.3145277469285 1160.6493942279594 393.50028704705403Q1157.0894767765208 400.7080211462625 1151.859474594778 404.9052077711065Q1146.6514472121185 409.10239439595045 1140.4765286698084 411.9371434776514L1140.4765286698084 411.9371434776514Q1129.8846755118254 416.8375236731498 1121.4903022621374 416.8375236731498L1121.4903022621374 416.8375236731498L1121.4903022621374 419.21080197410873Q1121.4903022621374 442.94358498369763 1122.7648406089488 450.8545126535606L1122.7648406089488 450.8545126535606Q1120.699209495151 452.92014376735824 1115.645005706072 454.1067829178377Q1110.5688271179101 455.2934220683171 1107.404456049965 455.2934220683171Q1104.2400849820197 455.2934220683171 1104.2400849820197 454.8099764884921L1104.2400849820197 454.8099764884921Q1103.602815808614 449.755772699413 1103.602815808614 433.93391735968703L1103.602815808614 433.93391735968703L1104.3939085756003 360.36229002996134Q1104.3939085756003 347.39715857101925 1103.9324377948583 342.3209799828572L1103.9324377948583 342.3209799828572Q1105.8222705159922 340.43114726172325 1110.3271043279974 338.69513813416995Q1114.8539129390856 336.93715420753375 1118.1721076006115 336.93715420753375Q1121.4903022621374 336.93715420753375 1122.2813950291238 337.4205997873587ZM1121.7979494492988 368.11939410624365L1121.4903022621374 391.36873153600766L1121.6441258557181 399.27965920587064Q1131.2910626531343 399.27965920587064 1138.5866959486748 393.74200983696653Q1145.860354445132 388.2043604680624 1145.860354445132 377.7663309036599L1145.860354445132 377.7663309036599Q1145.860354445132 360.66993721712265 1121.9737478419624 360.66993721712265L1121.9737478419624 360.66993721712265L1121.7979494492988 362.7355683309202Q1121.7979494492988 364.8011994447178 1121.7979494492988 368.11939410624365L1121.7979494492988 368.11939410624365ZM1213.4108868261287 363.8343082850679L1213.4108868261287 363.8343082850679Q1213.4108868261287 359.2635500758137 1208.5105066306303 359.2635500758137L1208.5105066306303 359.2635500758137Q1202.0279409011591 359.2635500758137 1197.1275607056607 365.8999393988654Q1192.2052057110793 372.53632872191713 1192.2052057110793 381.87561833217205L1192.2052057110793 381.87561833217205Q1192.2052057110793 384.0950730395503 1192.842474884485 384.0950730395503L1192.842474884485 384.0950730395503Q1198.5339478469696 383.9412494459696 1205.9834047360907 377.52460811374743Q1213.4108868261287 371.12994158060815 1213.4108868261287 363.8343082850679ZM1227.1890858511401 414.1565981850296L1227.1890858511401 414.1565981850296Q1221.8052600758167 417.80441483279975 1206.1372283296714 417.80441483279975Q1190.4691965835261 417.80441483279975 1182.0967981329213 408.4651252225448Q1173.702424883233 399.12583561228996 1173.702424883233 383.5457030624765Q1173.702424883233 367.96557051266296 1183.7449080641427 356.49472539136167Q1193.7873912450518 345.0238802700603 1211.982524885737 345.0238802700603L1211.982524885737 345.0238802700603Q1219.4319817748578 345.0238802700603 1225.6728247144165 348.9793441049918Q1231.9356424530579 352.9348079399233 1231.9356424530579 362.82346752725203Q1231.9356424530579 372.71212711458077 1223.2995464134574 382.359063911997Q1214.68542517294 392.00600070941323 1199.808486193781 397.0602044984924L1199.808486193781 397.0602044984924Q1199.808486193781 398.9720120187093 1203.6760508323807 400.1586511691887Q1207.5655902700632 401.34529031966815 1211.3672305114142 401.34529031966815L1211.3672305114142 401.34529031966815Q1223.3874456097892 401.34529031966815 1230.3534569190851 397.0602044984924L1230.3534569190851 397.0602044984924Q1230.507280512666 396.9063809049117 1230.8149276998274 396.9063809049117Q1231.1445496860715 396.9063809049117 1231.1445496860715 399.9169283792762L1231.1445496860715 399.9169283792762Q1231.1445496860715 409.10239439595045 1227.1890858511401 414.1565981850296ZM1244.1096811450136 392.79709347639954L1244.1096811450136 392.79709347639954L1243.8020339578525 356.8902717748548Q1243.8020339578525 347.55098216459993 1244.417328332175 346.9137129911943L1244.417328332175 346.9137129911943Q1246.1753122588111 345.177703863641 1250.438423280904 343.8372411195809Q1254.7015343029968 342.4748035764378 1258.437250147099 342.4748035764378Q1262.1509911921178 342.4748035764378 1262.1509911921178 343.2658963434241L1262.1509911921178 343.2658963434241Q1261.667545612293 347.55098216459993 1261.667545612293 353.00073233717217Q1261.667545612293 358.4724573088274 1261.997167598537 358.4724573088274Q1262.3048147856985 358.4724573088274 1262.6124619728598 358.07691092533423Q1262.9420839591041 357.6813645418411 1263.6452775297585 356.802372578523Q1264.3704458994962 355.9233806152049 1266.655825004123 353.7259007069096Q1268.9412041087503 351.50644599953137 1271.6441043959535 349.9242604655588L1271.6441043959535 349.9242604655588Q1278.4343173125858 345.48535105080236 1286.191421388868 345.48535105080236L1286.191421388868 345.48535105080236Q1287.4659597356795 347.55098216459993 1287.4659597356795 351.81409318669273L1287.4659597356795 351.81409318669273Q1287.4659597356795 360.8457356097863 1285.2465050283013 364.62540105205414L1285.2465050283013 364.62540105205414L1284.6092358548956 365.8999393988654L1282.5655795401808 365.5922922117041Q1271.1606588161285 365.5922922117041 1264.6780930866576 374.90960702287606L1264.6780930866576 374.90960702287606Q1262.1509911921178 378.71124726422687 1262.1509911921178 380.62305478444375L1262.1509911921178 380.62305478444375L1262.1509911921178 394.53310260395284Q1262.1509911921178 413.519329011624 1261.667545612293 414.00277459144894L1261.667545612293 414.00277459144894Q1257.2506109966193 418.26588561354174 1244.2635047385943 418.26588561354174L1244.2635047385943 418.26588561354174Q1243.010941190866 418.26588561354174 1243.010941190866 417.80441483279975L1243.010941190866 417.80441483279975Q1244.1096811450136 411.62949629049 1244.1096811450136 392.79709347639954ZM1339.8319059503558 395.9614645443447L1339.8319059503558 395.9614645443447Q1339.8319059503558 404.5096613876134 1331.833079084161 411.2339499069969Q1323.8562270170492 417.9582384263804 1314.604836603126 420.8808867044131Q1305.33147139012 423.80353498244585 1298.3874348799068 423.80353498244585L1298.3874348799068 423.80353498244585Q1297.5963421129206 423.80353498244585 1296.1679801725286 421.9137022613119L1296.1679801725286 421.9137022613119Q1292.2125163375972 416.6837000795692 1292.2125163375972 409.7176887702731L1292.2125163375972 409.7176887702731L1292.2125163375972 408.6189488161255Q1304.5403786231336 408.6189488161255 1311.0449191516877 404.3558377940327Q1317.5274848811587 400.0707519728569 1317.5274848811587 395.4780189645198L1317.5274848811587 395.4780189645198Q1317.5274848811587 392.48944628923823 1313.5720210462273 389.1492768286294Q1309.6165572112957 385.83108216710355 1304.870000609378 383.303980272564Q1300.1234440074602 380.77687837802443 1296.1679801725286 376.57969175318044Q1292.2125163375972 372.38250512833645 1292.2125163375972 367.7897721199994L1292.2125163375972 367.7897721199994Q1292.2125163375972 358.1428353225831 1304.2327314359723 350.0780840591395Q1316.2529465343473 342.0133327956958 1329.855347166695 342.0133327956958L1329.855347166695 342.0133327956958Q1331.4375327006678 342.0133327956958 1333.9866093942903 346.36434301412044Q1336.5137112888299 350.7153532325451 1336.6675348824106 355.30808624088223L1336.6675348824106 355.30808624088223Q1333.5031638144653 355.30808624088223 1327.174421678575 357.19791896201616L1327.174421678575 357.19791896201616Q1314.670761000375 361.15338279694765 1314.670761000375 366.9986793530131L1314.670761000375 366.9986793530131Q1314.670761000375 371.12994158060815 1327.0205980849942 378.2497764834848L1327.0205980849942 378.2497764834848Q1331.767154686912 380.9307019716051 1335.7226185218435 385.67725857352286Q1339.6780823567751 390.42381517544067 1339.8319059503558 395.9614645443447Z " fill="#ffa500" transform="matrix(0.6530669564721996,0,0,0.6530669564721996,0,51.64290636930336)"/></g></svg>